<svg xmlns="http://www.w3.org/2000/svg" xmlns:xlink="http://www.w3.org/1999/xlink" width="48" height="48" viewBox="0 0 48 48">
  <defs>
    <clipPath id="clip-path">
      <rect width="48" height="48" fill="none"/>
    </clipPath>
  </defs>
  <g id="Repeat_Grid_1" data-name="Repeat Grid 1" clip-path="url(#clip-path)">
    <g id="Group_140" data-name="Group 140" transform="translate(0 0)">
      <path id="Path_54" data-name="Path 54" d="M199.4,496.957a1.836,1.836,0,0,1-1.836,1.836h-22.4a7.352,7.352,0,0,1-7.343-7.344V471.07a1.836,1.836,0,1,1,3.671,0v20.379a3.676,3.676,0,0,0,3.672,3.672h22.4A1.836,1.836,0,0,1,199.4,496.957ZM212.982,457.3v5.507a1.836,1.836,0,0,1-1.836,1.836v13.4a1.836,1.836,0,1,1-3.672,0v-13.4H167.818a1.835,1.835,0,0,1-1.836-1.836V457.3a5.513,5.513,0,0,1,5.507-5.508h35.985A5.514,5.514,0,0,1,212.982,457.3Zm-43.329,3.671H209.31V457.3a1.838,1.838,0,0,0-1.836-1.836H171.489a1.838,1.838,0,0,0-1.836,1.836Zm23.868,11.016a1.836,1.836,0,0,0,0-3.672h-8.262a1.836,1.836,0,0,0,0,3.672Zm11.337,10.557h-9.684l2.3-2.275a1.836,1.836,0,0,0-2.582-2.611l-3.409,3.372a4.563,4.563,0,0,0-.01,6.488l3.415,3.4a1.836,1.836,0,1,0,2.589-2.6l-2.106-2.094h9.487a4.452,4.452,0,0,1,.051,8.9,1.836,1.836,0,1,0,0,3.672,8,8,0,0,0,5.726-2.387,8.142,8.142,0,0,0-5.777-13.861Z" transform="translate(-165.482 -451.293)" fill="#345"/>
      <rect id="Rectangle_79" data-name="Rectangle 79" width="48" height="48" transform="translate(0 0)" fill="none"/>
    </g>
  </g>
</svg>
