<svg xmlns="http://www.w3.org/2000/svg" width="48" height="48" viewBox="0 0 48 48">
  <g id="Group_139" data-name="Group 139" transform="translate(0 0)">
    <path id="Path_53" data-name="Path 53" d="M137.246,478.651l-1.073-5.462a7.544,7.544,0,0,0-1.551-3.578,4.99,4.99,0,0,0-3.92-1.724h-4.407v-7.51a1.875,1.875,0,1,0-3.75,0v18.2H104.358a1.875,1.875,0,1,0,0,3.75h31.687a3.527,3.527,0,0,1,3.188,3.469v4.875H135.16a5.624,5.624,0,0,0-10.605,0H112.941a5.623,5.623,0,0,0-10.6,0,3.753,3.753,0,0,1-3.6-3.746V467.877a1.875,1.875,0,0,0-3.75,0v19.041a7.507,7.507,0,0,0,7.352,7.5,5.624,5.624,0,0,0,10.606,0h11.614a5.624,5.624,0,0,0,10.605,0h5.948a1.876,1.876,0,0,0,1.875-1.875v-6.75A7.327,7.327,0,0,0,137.246,478.651Zm-10.951-7.014H130.7c.572,0,1.356,0,1.789,2.262v.009l.917,4.666h-7.114Zm-18.656,22.781a1.875,1.875,0,1,1,1.875-1.875A1.877,1.877,0,0,1,107.639,494.418Zm22.219,0a1.875,1.875,0,1,1,1.875-1.875A1.877,1.877,0,0,1,129.858,494.418ZM95.067,460.387a1.874,1.874,0,0,1,1.875-1.875h15.31l-2.928-2.883a1.875,1.875,0,0,1,2.631-2.673l4.232,4.167a4.636,4.636,0,0,1,0,6.62l-4.138,4.074a1.875,1.875,0,0,1-2.631-2.673l2.928-2.882h-15.4A1.876,1.876,0,0,1,95.067,460.387Z" transform="translate(-94.983 -451.293)" fill="#345"/>
    <rect id="Rectangle_78" data-name="Rectangle 78" width="48" height="48" transform="translate(0 0)" fill="none"/>
  </g>
</svg>
