<svg id="Layer_2" data-name="Layer 2" xmlns="http://www.w3.org/2000/svg" width="55" height="55" viewBox="0 0 55 55">
  <g id="Layer_1" data-name="Layer 1">
    <path id="Path_123" data-name="Path 123" d="M53.142,32.571a1.714,1.714,0,0,0-1.714,1.714v12h-48V25.714H22.285a1.714,1.714,0,0,0,0-3.429H3.429V15.429H22.285a1.714,1.714,0,0,0,0-3.429H3.429A3.429,3.429,0,0,0,0,15.429V46.285a3.429,3.429,0,0,0,3.429,3.429h48a3.429,3.429,0,0,0,3.429-3.429v-12A1.714,1.714,0,0,0,53.142,32.571Z" transform="translate(0.079 1.793)" fill="#345"/>
    <path id="Path_124" data-name="Path 124" d="M14.571,30H7.714a1.714,1.714,0,1,0,0,3.429h6.857a1.714,1.714,0,0,0,0-3.429Z" transform="translate(0.936 4.365)" fill="#345"/>
    <path id="Path_125" data-name="Path 125" d="M50.388,8.28l-12-5.143a1.726,1.726,0,0,0-1.349,0l-12,5.143A1.726,1.726,0,0,0,24,9.857v6.857c0,9.428,3.486,14.948,12.857,20.342a1.726,1.726,0,0,0,1.714,0C48,31.674,51.428,26.154,51.428,16.714V9.857a1.726,1.726,0,0,0-1.04-1.577ZM48,16.714c0,7.92-2.617,12.274-10.286,16.868-7.668-4.571-10.286-8.96-10.286-16.868V11L37.714,6.589,48,11Z" transform="translate(3.508 0.508)" fill="#345"/>
    <path id="Path_126" data-name="Path 126" d="M43.074,12.377a1.726,1.726,0,0,0-2.411.263l-5.394,6.743-2.126-3.189a1.715,1.715,0,1,0-2.857,1.9l3.429,5.143a1.726,1.726,0,0,0,1.36.766h.069a1.691,1.691,0,0,0,1.337-.64l6.857-8.571a1.714,1.714,0,0,0-.263-2.411Z" transform="translate(4.364 1.794)" fill="#345"/>
    <rect id="Rectangle_245" data-name="Rectangle 245" width="55" height="55" fill="none"/>
  </g>
</svg>
