<svg xmlns="http://www.w3.org/2000/svg" width="48" height="48" viewBox="0 0 48 48">
  <g id="Group_166" data-name="Group 166" transform="translate(0 0)">
    <g id="Group_165" data-name="Group 165" transform="translate(3.519)">
      <path id="Path_66" data-name="Path 66" d="M354.744,464.4c-.021-.453-.035-.932-.043-1.465a5.322,5.322,0,0,0-5.012-5.213,19.277,19.277,0,0,1-13.115-5.545,3.33,3.33,0,0,0-4.563.035,19.224,19.224,0,0,1-13.078,5.511,5.321,5.321,0,0,0-5.012,5.213c-.008.529-.022,1.008-.045,1.559-.106,5.581-.238,12.528,2.1,18.86a24.2,24.2,0,0,0,5.8,9.031,30.267,30.267,0,0,0,11.319,6.7,3.85,3.85,0,0,0,.5.135,3.731,3.731,0,0,0,1.449,0,3.538,3.538,0,0,0,.5-.137,30.269,30.269,0,0,0,11.305-6.7,24.2,24.2,0,0,0,5.8-9.034C354.984,477,354.851,470.019,354.744,464.4Zm-37.492.134c.022-.483.037-.99.045-1.548a1.936,1.936,0,0,1,1.823-1.895,24.646,24.646,0,0,0,8.384-1.844,21.908,21.908,0,0,0,6.807-4.562,21.989,21.989,0,0,0,6.807,4.562A24.656,24.656,0,0,0,349.5,461.1a1.935,1.935,0,0,1,1.823,1.9c.009.559.023,1.066.045,1.54.106,5.578.225,11.9-1.9,17.653-2.41,6.531-7.357,11.025-15.163,13.734a.454.454,0,0,1-.112-.019c-7.727-2.695-12.653-7.178-15.06-13.707C317.026,476.456,317.146,470.123,317.252,464.538Z" transform="translate(-313.829 -451.294)" fill="#345"/>
      <path id="Path_67" data-name="Path 67" d="M334.31,487.407A12.112,12.112,0,1,0,322.2,475.3,12.126,12.126,0,0,0,334.31,487.407Zm0-20.847a8.736,8.736,0,1,1-8.735,8.735A8.745,8.745,0,0,1,334.31,466.56Z" transform="translate(-313.829 -451.294)" fill="#345"/>
      <path id="Path_68" data-name="Path 68" d="M328.552,477.8l2.473,2.474a1.689,1.689,0,0,0,2.387,0l6.472-6.472a1.688,1.688,0,0,0-2.388-2.387l-5.278,5.277-1.279-1.279a1.688,1.688,0,0,0-2.387,2.387Z" transform="translate(-313.829 -451.294)" fill="#345"/>
    </g>
    <rect id="Rectangle_81" data-name="Rectangle 81" width="48" height="48" transform="translate(0 0)" fill="none"/>
  </g>
</svg>
